<svg xmlns="http://www.w3.org/2000/svg" width="1024" height="1024" viewBox="0 0 1024 1024" version="1.1"><path d="M 489.500 126.157 C 477.351 132.439, 471.216 145.629, 472.587 162.519 C 473.561 174.528, 474.730 174, 447.164 174 C 427.025 174, 423.861 174.223, 419.045 175.984 C 410.322 179.172, 404.502 185.737, 401.432 195.852 C 399.470 202.317, 399.650 206.891, 402.166 214.555 C 406.826 228.750, 416.677 234.922, 435 235.126 C 440.225 235.184, 443.712 235.438, 442.750 235.689 C 441.707 235.962, 441 237.100, 441 238.505 C 441 240.876, 436.499 245, 433.912 245 C 428.182 245, 407.538 256.152, 397.021 264.928 C 386.570 273.650, 384.481 275.541, 376.499 283.500 C 363.066 296.894, 349.054 316.162, 342.683 330 C 341.037 333.575, 339.015 337.287, 338.190 338.250 C 334.275 342.817, 322.907 338.222, 299.500 322.611 C 290.267 316.453, 274.433 301.326, 267.892 292.415 C 263.433 286.339, 256.705 273.852, 255.008 268.500 C 254.310 266.300, 253.409 264.050, 253.006 263.500 C 252.603 262.950, 251.986 260.614, 251.634 258.309 C 251.283 256.003, 250.462 252.853, 249.811 251.309 C 249.159 249.764, 248.088 244.249, 247.431 239.054 C 246.116 228.671, 244.396 226, 239.024 226 C 234.910 226, 231.726 229.073, 224.726 239.801 C 214.294 255.790, 205.419 277.203, 198.947 302 C 190.958 332.610, 190.341 370.421, 197.379 398.133 C 203.828 423.526, 219.929 453.594, 236.032 470.314 C 242.865 477.409, 242.865 477.409, 239.890 478.850 C 237.266 480.121, 235.712 480.083, 226.708 478.526 C 201.656 474.195, 174.535 464.433, 154.755 452.627 C 142.624 445.387, 138.865 444.697, 134 448.819 C 130.825 451.510, 130.513 452.239, 130.643 456.676 C 130.980 468.184, 147.156 509.838, 158.677 528.864 C 169.812 547.253, 175.359 554.785, 190 571.394 C 213.399 597.940, 242.311 619.131, 270 630.031 C 284.211 635.625, 309.181 642.946, 314.168 642.981 C 318.198 643.010, 320 644.001, 320 646.189 C 320 647.991, 318.092 650.894, 306.732 666.367 C 302.426 672.232, 283.785 691.287, 270.500 703.402 C 259.085 713.812, 229.519 737.291, 220 743.506 C 209.703 750.229, 207.096 753.264, 207.035 758.602 C 206.966 764.723, 210.500 767.961, 225.534 775.548 C 233.215 779.425, 243.325 783.854, 247.999 785.392 C 252.673 786.930, 256.829 788.708, 257.234 789.344 C 258.604 791.497, 258.010 797.177, 256.136 799.846 C 251.312 806.714, 250.942 814.740, 255.265 818.756 C 256.494 819.898, 262.225 822.393, 268 824.302 C 277.522 827.450, 281.861 828.523, 298.826 831.930 C 301.756 832.519, 309.551 833, 316.149 833 C 329.281 833, 341.153 830.720, 350.686 826.368 C 353.538 825.065, 356.272 824, 356.762 824 C 358.870 824, 361.729 829.005, 363.332 835.500 C 366.100 846.714, 371.962 857.431, 380.562 866.997 C 391.886 879.592, 399.037 884.052, 414.500 888.161 C 421.445 890.006, 429.323 890.707, 524.500 897.946 C 546.500 899.619, 581.600 902.398, 602.500 904.122 C 648.446 907.912, 657.614 908.044, 668.505 905.079 C 689.421 899.383, 708.416 884.614, 718.882 865.910 C 722.702 859.084, 725.937 849.739, 730.622 832 C 732.583 824.575, 735.021 815.350, 736.041 811.500 C 737.060 807.650, 739.440 798.650, 741.329 791.500 C 743.218 784.350, 745.688 775.125, 746.818 771 C 747.947 766.875, 750.535 757.200, 752.567 749.500 C 754.600 741.800, 757.603 730.550, 759.240 724.500 C 760.878 718.450, 763.695 707.875, 765.501 701 C 767.308 694.125, 769.774 684.900, 770.981 680.500 C 772.189 676.100, 773.990 669.350, 774.985 665.500 C 775.979 661.650, 778.232 653.325, 779.992 647 C 785.377 627.646, 794.118 595.443, 796.414 586.500 C 798.520 578.298, 804.363 556.232, 807.005 546.500 C 808.199 542.100, 809.997 535.350, 811 531.500 C 812.003 527.650, 813.800 520.900, 814.994 516.500 C 819.018 501.675, 829.214 463.501, 833.423 447.500 C 835.305 440.350, 839.095 426.400, 841.845 416.500 C 844.596 406.600, 847.308 396.250, 847.871 393.500 C 848.435 390.750, 849.594 386.039, 850.448 383.032 C 853.141 373.545, 852.264 345.086, 849.217 343.104 C 848.706 342.772, 847.981 340.827, 847.605 338.782 C 847.229 336.737, 846.336 334.479, 845.621 333.764 C 844.906 333.049, 843.912 331.266, 843.411 329.801 C 842.092 325.944, 830.504 311.599, 825.113 307.150 C 817.659 300.997, 808.792 296.042, 800.370 293.322 C 794.015 291.270, 789.275 290.609, 775.750 289.890 C 766.538 289.401, 751.237 288.518, 741.750 287.929 C 732.263 287.340, 717.975 286.460, 710 285.973 C 702.025 285.486, 688.750 284.624, 680.500 284.059 C 672.250 283.493, 659.425 282.651, 652 282.189 C 636.354 281.214, 632.947 279.932, 623.941 271.627 C 617.799 265.963, 608.429 259, 606.950 259 C 606.427 259, 606 258.550, 606 258 C 606 257.450, 605.519 257, 604.930 257 C 604.342 257, 601.979 255.749, 599.680 254.219 C 597.381 252.690, 594.375 250.950, 593 250.353 C 587.426 247.933, 585.224 247.054, 579.151 244.828 C 575.659 243.547, 571.609 241.375, 570.151 240 C 568.693 238.625, 566.150 236.972, 564.500 236.326 C 561.797 235.268, 562.293 235.144, 569.500 235.065 C 582.137 234.928, 590.125 231.924, 596.438 224.937 C 602.923 217.759, 604.276 213.386, 603.805 201.116 C 603.423 191.153, 603.204 190.223, 600.257 186 C 598.529 183.525, 595.529 180.439, 593.590 179.143 C 586.632 174.492, 583.907 174.090, 558.973 174.044 C 539.347 174.007, 535.076 173.742, 533.223 172.443 C 531.112 170.965, 531 170.204, 531 157.379 C 531 145.217, 530.759 143.345, 528.582 138.585 C 525.857 132.629, 520.435 127.770, 513.965 125.488 C 507.553 123.225, 494.477 123.583, 489.500 126.157 M 495.524 145.975 C 493.888 147.053, 492.232 148.738, 491.845 149.718 C 491.457 150.698, 491.109 160.838, 491.070 172.250 C 491 193, 491 193, 460.135 193 C 430.150 193, 429.192 193.061, 426.560 195.131 C 422.847 198.052, 421.679 201.496, 423.021 205.564 C 424.995 211.543, 424.506 211.456, 458.902 212 C 490.500 212.500, 490.500 212.500, 490.766 240.263 C 491.032 268.025, 491.032 268.025, 493.722 266.263 C 495.624 265.016, 498.401 264.500, 503.206 264.500 C 510 264.500, 510 264.500, 510 238.879 C 510 208.739, 505.595 211.881, 547.622 212.049 C 575.297 212.160, 575.297 212.160, 577.613 209.330 C 580.768 205.473, 580.758 199.993, 577.588 196.306 C 575.176 193.500, 575.176 193.500, 542.838 193 C 510.500 192.500, 510.500 192.500, 510 171 C 509.725 159.175, 509.108 148.892, 508.628 148.148 C 507.697 146.704, 501.911 143.996, 499.782 144.007 C 499.077 144.010, 497.161 144.896, 495.524 145.975 M 357 221.798 C 351.984 224.237, 349.539 229.575, 350.983 234.937 C 352.521 240.649, 355.385 243, 360.806 243 C 364.618 243, 365.777 242.459, 369.118 239.118 C 372.328 235.908, 373 234.546, 373 231.253 C 373 226.194, 370.105 222.401, 365.205 221.040 C 360.689 219.786, 361.243 219.735, 357 221.798 M 641.308 222.010 C 638.614 223.095, 636.205 226.662, 635.910 230 C 635.103 239.134, 637.465 243, 643.852 243 C 652.032 243, 657.205 236.239, 655.595 227.653 C 654.554 222.104, 647.748 219.416, 641.308 222.010 M 224.603 274.250 C 219.185 288.133, 216.852 299.421, 216.275 314.550 C 215.441 336.368, 219.231 350.906, 230.087 367.536 C 243.913 388.715, 266.013 402.586, 295.395 408.526 C 299.006 409.256, 298.020 410.196, 290.908 412.803 C 272.742 419.464, 249.922 419.522, 232.629 412.951 C 229.873 411.904, 227.440 411.226, 227.221 411.445 C 227.003 411.664, 228.071 414.016, 229.595 416.671 C 233.455 423.396, 247.259 436.757, 255.017 441.276 C 269.501 449.714, 289.669 452.931, 309.136 449.911 C 312.997 449.312, 316.381 449.047, 316.656 449.323 C 317.548 450.215, 304.672 462.531, 298.500 466.688 C 290.268 472.234, 276.883 478.884, 268.628 481.529 C 264.848 482.740, 262.148 483.966, 262.628 484.254 C 263.108 484.541, 267.029 485.557, 271.343 486.510 C 277.647 487.902, 282.062 488.132, 293.843 487.681 C 301.904 487.372, 309.850 486.813, 311.500 486.439 C 314.186 485.830, 314.343 485.920, 313 487.294 C 310.137 490.223, 298.460 495.890, 291.123 497.911 C 270.462 503.602, 237.250 502.795, 207.695 495.883 C 197.609 493.525, 179.426 487.490, 170.467 483.528 C 167.323 482.138, 164.581 481, 164.372 481 C 164.164 481, 165.682 483.767, 167.747 487.149 C 172.945 495.666, 192.741 515.575, 202.410 522.012 C 223.588 536.109, 244.431 541.988, 273.257 541.996 C 286.205 542, 306.632 539.964, 309.128 538.421 C 309.608 538.124, 310 538.321, 310 538.857 C 310 540.725, 298.093 550.590, 290.806 554.760 C 275.279 563.643, 259.490 567.364, 239.518 566.847 C 226.103 566.500, 226.103 566.500, 228.751 569.263 C 232.555 573.232, 244.353 581.173, 252.500 585.248 C 280.903 599.454, 316.054 601.927, 346.468 591.860 C 351.400 590.228, 358.713 587.175, 362.718 585.076 C 366.725 582.977, 370 581.783, 370 582.422 C 370 583.061, 367.674 587.364, 364.830 591.985 C 357.190 604.400, 343.544 617.462, 329.595 625.715 C 325.500 628.137, 325.500 628.137, 338.500 627.704 C 353.009 627.220, 362.099 624.774, 370.531 619.084 C 372.989 617.425, 375 616.409, 375 616.827 C 375 619.426, 315.181 685.662, 294.378 706.097 C 272.601 727.490, 263.875 735.159, 246.761 747.949 C 241.405 751.952, 237.251 755.596, 237.530 756.048 C 238.564 757.721, 253.745 762.872, 259.590 763.533 C 275.545 765.338, 296.086 755.501, 315.750 736.638 C 320.288 732.286, 324 729.084, 324 729.524 C 324 730.963, 309.464 758.279, 302.987 769.012 C 296.170 780.307, 284.858 797.164, 281.759 800.645 C 279.849 802.789, 279.849 802.789, 284.675 804.349 C 291.984 806.711, 305.503 809, 312.150 809 C 319.751 809, 323.916 806.877, 331.067 799.355 C 338.478 791.562, 343.546 782.759, 351.997 763.006 C 355.865 753.967, 359.408 746.192, 359.872 745.728 C 360.336 745.264, 361.020 748.623, 361.391 753.192 C 362.355 765.040, 364.351 773.622, 367.992 781.577 C 371.161 788.500, 371.161 788.500, 377.174 782.012 C 383.720 774.948, 390.963 761.357, 392.901 752.500 C 393.503 749.750, 394.430 739.170, 394.961 728.989 C 396.925 691.335, 404.267 659.704, 417.356 632.500 C 426.748 612.981, 436.710 599.620, 464.850 568.799 C 499.769 530.553, 511.927 506.768, 516.628 467.500 C 517.803 457.681, 518.022 449.973, 517.524 436 C 516.254 400.375, 520.427 383.620, 533.985 369.912 C 541.767 362.044, 552.411 356.418, 567.353 352.274 C 577.205 349.542, 577.205 349.542, 567.853 344.977 C 562.709 342.466, 556.608 339.656, 554.296 338.732 C 550.670 337.284, 549.933 336.467, 548.944 332.793 C 543.334 311.958, 521.988 299.756, 499.255 304.391 C 481.671 307.976, 470.805 316.650, 457.402 337.800 C 447.025 354.176, 443.741 358.312, 436.579 364.027 C 431.147 368.361, 431.147 368.361, 437.516 375.240 C 452.114 391.008, 458.702 405.976, 454.805 414.528 C 452.538 419.504, 444.716 421.590, 440.196 418.425 C 438.959 417.558, 436.104 413.185, 433.852 408.706 C 428.794 398.646, 424.351 392.732, 417.815 387.357 C 407.834 379.151, 399.823 376.381, 376.247 372.982 C 342.028 368.048, 317.949 360.119, 294.411 346.035 C 264.719 328.268, 240.046 299.464, 229.921 270.750 C 229.193 268.688, 228.336 267, 228.015 267 C 227.694 267, 226.159 270.262, 224.603 274.250 M 570.500 296.603 C 565.280 297.971, 556 301.219, 556 301.678 C 556 301.961, 557.816 304.256, 560.035 306.777 C 562.255 309.299, 565.421 314.191, 567.071 317.649 C 569.950 323.681, 570.611 324.304, 583.304 332.940 C 595.968 341.556, 608 351.296, 608 352.932 C 608 353.583, 599.745 357.646, 592.500 360.560 C 590.142 361.509, 593.421 361.803, 647 365.442 C 736.396 371.514, 788.806 375.472, 789.541 376.207 C 789.790 376.456, 789.341 378.874, 788.545 381.580 C 787.748 384.286, 785.779 391.450, 784.168 397.500 C 782.558 403.550, 779.184 416.150, 776.672 425.500 C 774.159 434.850, 771.449 444.975, 770.649 448 C 769.849 451.025, 766.623 462.950, 763.481 474.500 C 760.339 486.050, 756.743 499.325, 755.489 504 C 754.236 508.675, 747.112 534.775, 739.659 562 C 732.206 589.225, 722.504 624.775, 718.100 641 C 713.696 657.225, 706.640 682.875, 702.421 698 C 691.529 737.043, 692.187 733.523, 695.175 736.766 C 696.560 738.270, 699.261 741.602, 701.177 744.171 C 704.660 748.842, 704.660 748.842, 710.987 726.671 C 717.200 704.900, 731.287 654.680, 736.983 634 C 738.573 628.225, 742.178 615.175, 744.993 605 C 747.809 594.825, 753.901 572.775, 758.531 556 C 763.161 539.225, 768.944 518.300, 771.381 509.500 C 773.818 500.700, 778.976 481.800, 782.844 467.500 C 786.711 453.200, 792.553 431.825, 795.827 420 C 813.363 356.662, 814.427 352.182, 814.464 341.500 C 814.493 333.503, 814.104 330.699, 812.523 327.500 C 809.699 321.789, 802.905 315.571, 795.513 311.932 C 787.702 308.086, 789.916 308.296, 700.500 302.932 C 663.650 300.721, 628.550 298.475, 622.500 297.941 C 609.411 296.786, 573.344 295.858, 570.500 296.603 M 507.763 322.565 C 502.024 325.679, 500.413 333.346, 504.287 339.102 C 508.800 345.806, 516.076 346.585, 522.294 341.028 C 525.187 338.443, 525.500 337.612, 525.500 332.500 C 525.500 327.367, 525.194 326.563, 522.234 323.918 C 518.490 320.573, 512.472 320.010, 507.763 322.565 M 626.756 324.977 C 622.408 328.397, 622.585 336.011, 627.076 338.816 C 628.372 339.625, 639.407 340.802, 657.308 342.042 C 693.733 344.564, 697.437 344.563, 699.975 342.025 C 704.109 337.891, 703.560 331.665, 698.796 328.656 C 697.130 327.605, 687.713 326.625, 664.500 325.088 C 646.900 323.923, 631.773 322.977, 630.885 322.985 C 629.997 322.993, 628.138 323.890, 626.756 324.977 M 729.284 329.683 C 725.649 330.416, 722 335.603, 722 340.036 C 722 350.076, 736.167 352.537, 740.883 343.316 C 744.516 336.211, 737.544 328.017, 729.284 329.683 M 831.830 339.017 C 832.399 344.980, 830.659 353.300, 823.503 378.837 C 819.926 391.601, 817 402.433, 817 402.909 C 817 403.384, 818.237 403.985, 819.750 404.245 C 821.263 404.505, 823.207 405.023, 824.070 405.397 C 825.367 405.958, 826.569 402.980, 830.975 388.288 C 835.938 371.738, 836.310 369.769, 836.329 360 C 836.341 353.213, 835.742 347.205, 834.633 343.009 C 832.602 335.322, 831.301 333.469, 831.830 339.017 M 747.982 398.250 C 742.473 403.887, 738.086 409.127, 738.233 409.893 C 738.380 410.659, 739.254 411.761, 740.176 412.341 C 741.564 413.215, 743.492 411.776, 751.415 403.948 C 759.583 395.879, 760.980 394.026, 760.989 391.250 C 760.997 389.023, 760.528 388, 759.500 388 C 758.674 388, 753.492 392.613, 747.982 398.250 M 810.609 429.965 C 807.731 439.930, 807.731 439.930, 810.818 443.446 C 812.516 445.380, 814.177 446.522, 814.509 445.985 C 815.570 444.268, 819.957 428.579, 819.979 426.424 C 820 424.362, 816.231 420, 814.429 420 C 813.911 420, 812.192 424.484, 810.609 429.965 M 626.169 432.741 C 625.668 433.708, 621.519 447.708, 616.949 463.851 C 612.320 480.202, 608.066 493.421, 607.345 493.698 C 606.632 493.971, 592.707 492.783, 576.399 491.056 C 560.092 489.330, 546.648 488.049, 546.524 488.209 C 546.401 488.369, 545.841 490.300, 545.281 492.500 C 543.885 497.980, 533.321 534.120, 532.539 536.090 C 531.990 537.476, 534.715 537.972, 553.704 539.941 C 580.390 542.709, 594.830 544.497, 595.443 545.109 C 595.697 545.364, 586.937 576.976, 575.976 615.357 C 556.047 685.143, 556.047 685.143, 561.047 690.143 C 563.797 692.893, 566.733 696.190, 567.572 697.469 C 569.096 699.796, 569.096 699.796, 574.738 696.399 C 582.774 691.560, 589.920 689.119, 601.442 687.276 C 606.974 686.391, 611.577 685.627, 611.672 685.578 C 611.838 685.492, 618.822 660.360, 623.503 643 C 624.764 638.325, 628.968 623.025, 632.845 609 C 636.723 594.975, 641.918 576.138, 644.390 567.141 C 646.862 558.144, 649.072 550.594, 649.301 550.365 C 649.531 550.136, 653.931 550.426, 659.081 551.009 C 672.227 552.498, 707.187 555.986, 709.044 555.994 C 710.152 555.998, 711.216 553.524, 712.806 547.250 C 714.025 542.438, 716.817 531.988, 719.011 524.029 C 721.205 516.069, 723 508.852, 723 507.991 C 723 506.937, 721.937 506.352, 719.750 506.201 C 717.962 506.077, 712 505.526, 706.500 504.976 C 659.416 500.266, 661.564 500.577, 662.330 498.582 C 662.800 497.358, 669.177 473.828, 676.036 448.011 C 677.569 442.242, 678.654 437.249, 678.448 436.915 C 678.241 436.582, 673.444 436.020, 667.786 435.667 C 657.085 435, 633.132 432.409, 629.290 431.503 C 627.816 431.155, 626.777 431.567, 626.169 432.741 M 783 528.472 C 783 528.732, 779.220 542.120, 774.600 558.222 C 769.979 574.325, 763.855 596.050, 760.989 606.500 C 758.124 616.950, 753.159 634.725, 749.956 646 C 746.753 657.275, 742.055 674.150, 739.515 683.500 C 736.975 692.850, 730.833 714.900, 725.866 732.500 C 695.978 838.395, 695.915 838.577, 685.301 850.042 C 672.434 863.939, 656.692 870.952, 638.287 870.985 C 633.769 870.993, 616.444 869.890, 599.787 868.533 C 583.129 867.176, 554.425 864.919, 536 863.518 C 434.683 855.813, 395.002 851.973, 390.972 849.483 C 388.611 848.024, 390.331 850.907, 393.750 854.140 C 401.647 861.607, 411.070 866.184, 422.139 867.928 C 428.947 869.001, 469.358 872.375, 524.500 876.475 C 543.200 877.866, 573.125 880.184, 591 881.626 C 608.875 883.068, 630.925 884.305, 640 884.374 C 654.775 884.487, 657.232 884.258, 663.500 882.183 C 674.166 878.652, 683.575 872.626, 692.522 863.596 C 702.581 853.444, 706.422 845.916, 711.958 825.500 C 714.196 817.250, 717.765 804.200, 719.890 796.500 C 722.015 788.800, 725.587 775.750, 727.827 767.500 C 730.067 759.250, 736.247 736.525, 741.562 717 C 746.877 697.475, 752.482 676.775, 754.018 671 C 755.554 665.225, 760.946 645.650, 765.999 627.500 C 771.052 609.350, 775.841 592.025, 776.641 589 C 777.441 585.975, 779.377 579, 780.942 573.500 C 782.507 568, 785.467 557.164, 787.519 549.420 C 791.251 535.340, 791.251 535.340, 787.882 531.670 C 784.856 528.373, 783 527.157, 783 528.472 M 493.193 688.026 C 489.724 688.502, 484.351 689.628, 481.253 690.529 C 474.875 692.383, 462.957 698.141, 461.256 700.191 C 459.537 702.263, 453.665 719.279, 437.485 769.075 C 429.367 794.059, 422.505 815.085, 422.236 815.801 C 421.967 816.516, 425.356 815.281, 429.768 813.057 C 440.951 807.418, 452.897 804.640, 466 804.632 C 485.431 804.621, 500.701 810.760, 514.164 823.997 C 521.828 831.532, 521.828 831.532, 523.974 824.016 C 525.155 819.882, 528.552 808.850, 531.524 799.500 C 534.495 790.150, 541.429 768.100, 546.931 750.500 C 556.936 718.500, 556.936 718.500, 552.271 711.618 C 540.325 693.992, 517.152 684.738, 493.193 688.026 M 600 708.015 C 592.199 709.635, 581.702 713.928, 576 717.831 C 570.500 721.595, 570.500 721.595, 564.313 740.548 C 560.910 750.971, 555.876 766.700, 553.126 775.500 C 545.810 798.911, 536.818 827.302, 536.242 828.807 C 535.967 829.527, 537.409 828.984, 539.446 827.601 C 544.870 823.921, 553.295 820.986, 563.500 819.223 C 585.214 815.472, 609.660 822.783, 626.322 838.011 C 631.826 843.041, 631.826 843.041, 633.394 838.271 C 634.256 835.647, 636.268 829, 637.864 823.500 C 646.269 794.536, 661.244 744.213, 663.080 738.762 C 665.183 732.519, 665.183 732.519, 657.842 725.501 C 650.099 718.099, 640.497 712.391, 631 709.544 C 624.476 707.587, 606.363 706.694, 600 708.015 M 433.207 715.789 C 427.915 718.455, 427.915 718.455, 420.063 742.478 C 415.744 755.690, 408.074 778.425, 403.018 793 C 397.962 807.575, 393.374 820.850, 392.823 822.500 C 391.950 825.115, 392.250 826.171, 395.161 830.728 C 396.997 833.603, 398.727 835.966, 399.005 835.978 C 399.283 835.990, 400.002 834.538, 400.602 832.750 C 401.203 830.962, 407.140 813.300, 413.796 793.500 C 423.637 764.226, 435.675 727.497, 439.443 715.250 C 440.307 712.440, 439.758 712.488, 433.207 715.789 M 677.658 756.250 C 676.711 759.138, 669.633 782.425, 661.930 808 C 654.227 833.575, 647.700 855.244, 647.425 856.154 C 647.045 857.413, 648.446 857.002, 653.286 854.431 C 659.647 851.054, 659.647 851.054, 664.761 833.777 C 677.259 791.554, 686 761.252, 686 760.151 C 686 758.696, 681.003 751, 680.058 751 C 679.686 751, 678.606 753.362, 677.658 756.250 M 445.500 826.934 C 437.161 829.062, 435.180 829.816, 423.677 835.241 C 416.561 838.596, 415.240 839.545, 416.851 840.141 C 419.324 841.055, 430.723 839.856, 446.500 837.022 C 464.887 833.719, 477.200 835.258, 494 842.960 C 498.675 845.103, 504.738 847.119, 507.474 847.440 C 512.448 848.023, 512.448 848.023, 507.474 842.888 C 500.528 835.716, 492.012 830.407, 482.777 827.489 C 472.875 824.361, 456.533 824.118, 445.500 826.934 M 563.500 839.082 C 555.740 840.614, 546.980 843.752, 541.568 846.938 C 536.636 849.841, 536.636 849.841, 540.568 850.597 C 546.105 851.662, 557.023 851.552, 567.052 850.330 C 577.635 849.041, 585.791 850.037, 597.644 854.064 C 603.197 855.951, 609.484 857.276, 614.500 857.616 C 622.500 858.159, 622.500 858.159, 620 856.132 C 614.283 851.495, 601.593 844.621, 593.774 841.926 C 584.316 838.666, 571.638 837.475, 563.500 839.082" stroke="none" fill="#0a5968" fill-rule="evenodd"/><path d="M 499 122 C 498.175 122.533, 496.031 122.976, 494.235 122.985 C 489.424 123.007, 480.882 129.098, 476.585 135.570 C 474.613 138.539, 473 141.786, 473 142.785 C 473 143.783, 472.527 145.073, 471.949 145.651 C 471.335 146.265, 470.893 151.632, 470.885 158.576 C 470.876 165.432, 470.423 170.990, 469.813 171.726 C 469.010 172.693, 463 173, 444.864 173 C 431.724 173, 420.191 173.400, 419.236 173.889 C 418.281 174.378, 415.770 175.616, 413.655 176.639 C 409.194 178.798, 402.118 187.161, 401.303 191.237 C 400.994 192.780, 400.350 194.284, 399.871 194.580 C 398.711 195.297, 398.749 212.552, 399.916 214.764 C 400.420 215.719, 401.588 218.234, 402.512 220.353 C 404.798 225.597, 410.495 231.698, 414.879 233.599 C 416.871 234.462, 419.281 235.580, 420.236 236.084 C 421.191 236.588, 425.299 237, 429.364 237 C 438.014 237, 440.717 238.645, 436.553 241.374 C 435.187 242.268, 433.401 243, 432.582 243 C 431.764 243, 429.835 243.506, 428.297 244.125 C 426.759 244.743, 424.375 245.695, 423 246.241 C 418.682 247.955, 410.965 252.195, 406.846 255.117 C 405.386 256.153, 403.753 257, 403.218 257 C 402.683 257, 401.628 257.744, 400.874 258.652 C 400.119 259.561, 397.080 262.094, 394.120 264.281 C 386.299 270.058, 365.351 291.282, 358.864 300 C 351.176 310.333, 343.954 321.538, 341.140 327.500 C 335.775 338.865, 334.382 340.344, 331.017 338.243 C 329.923 337.559, 328.009 337.016, 326.764 337.035 C 324.518 337.071, 324.520 337.082, 327 338.500 C 330.527 340.516, 336.359 340.386, 338.190 338.250 C 339.015 337.288, 341.037 333.575, 342.683 330 C 349.054 316.162, 363.066 296.894, 376.499 283.500 C 384.481 275.541, 386.570 273.650, 397.021 264.928 C 407.538 256.152, 428.182 245, 433.912 245 C 436.499 245, 441 240.876, 441 238.505 C 441 237.100, 441.707 235.962, 442.750 235.689 C 443.712 235.438, 440.225 235.184, 435 235.126 C 416.677 234.922, 406.826 228.750, 402.166 214.555 C 399.650 206.891, 399.470 202.317, 401.432 195.852 C 404.502 185.737, 410.322 179.172, 419.045 175.984 C 423.861 174.223, 427.025 174, 447.164 174 C 474.730 174, 473.561 174.528, 472.587 162.519 C 471.220 145.672, 477.289 132.493, 489.217 126.407 C 493.014 124.469, 495.464 124, 501.789 124 C 511.788 124, 517.651 126.002, 523.440 131.394 C 525.948 133.729, 528 135.308, 528 134.902 C 528 133.072, 526.672 131, 525.500 131 C 524.793 131, 523.955 130.325, 523.638 129.500 C 523.322 128.675, 522.374 128, 521.531 128 C 520.689 128, 520 127.583, 520 127.073 C 520 125.664, 514.052 123, 510.905 123 C 509.372 123, 507.840 122.550, 507.500 122 C 506.713 120.726, 500.971 120.726, 499 122 M 529.992 141.479 C 530.546 142.937, 531 150.150, 531 157.508 C 531 170.199, 531.114 170.967, 533.223 172.443 C 535.077 173.742, 539.256 174.001, 558.473 174.006 C 582.720 174.011, 586.533 174.515, 592.382 178.484 C 595.283 180.453, 596 180.630, 596 179.376 C 596 178.516, 595.100 177.577, 594 177.290 C 592.900 177.002, 592 176.369, 592 175.883 C 592 175.398, 591.100 175, 590 175 C 588.900 175, 588 174.550, 588 174 C 588 173.359, 578.667 173, 562 173 C 545.333 173, 536 172.641, 536 172 C 536 171.450, 535.111 171, 534.025 171 C 532.155 171, 532.036 170.173, 531.775 155.332 C 531.573 143.834, 531.165 139.553, 530.242 139.246 C 529.280 138.926, 529.221 139.451, 529.992 141.479 M 495.524 145.975 C 493.888 147.053, 492.232 148.738, 491.845 149.718 C 491.457 150.698, 491.109 160.838, 491.070 172.250 C 491 193, 491 193, 460.135 193 C 430.150 193, 429.192 193.061, 426.560 195.131 C 422.847 198.052, 421.679 201.496, 423.021 205.564 C 424.995 211.543, 424.506 211.456, 458.902 212 C 490.500 212.500, 490.500 212.500, 490.766 240.263 C 491.032 268.025, 491.032 268.025, 493.722 266.263 C 495.624 265.016, 498.401 264.500, 503.206 264.500 C 510 264.500, 510 264.500, 510 238.879 C 510 208.739, 505.595 211.881, 547.622 212.049 C 575.297 212.160, 575.297 212.160, 577.613 209.330 C 580.768 205.473, 580.758 199.993, 577.588 196.306 C 575.176 193.500, 575.176 193.500, 542.838 193 C 510.500 192.500, 510.500 192.500, 510 171 C 509.725 159.175, 509.108 148.892, 508.628 148.148 C 507.697 146.704, 501.911 143.996, 499.782 144.007 C 499.077 144.010, 497.161 144.896, 495.524 145.975 M 602.177 216.386 C 600.640 220.638, 593.727 228.573, 589.783 230.612 C 584.170 233.515, 577.504 234.978, 569.500 235.065 C 562.293 235.144, 561.797 235.268, 564.500 236.326 C 566.150 236.972, 568.693 238.625, 570.151 240 C 571.609 241.375, 575.659 243.547, 579.151 244.828 C 591.487 249.350, 594.283 250.629, 599.680 254.219 C 601.979 255.749, 604.342 257, 604.930 257 C 605.519 257, 606 257.450, 606 258 C 606 258.550, 606.450 259, 607 259 C 608.869 259, 608.010 255.815, 606 255.290 C 604.900 255.002, 604 254.369, 604 253.883 C 604 253.398, 603.100 253, 602 253 C 600.900 253, 600 252.550, 600 252 C 600 251.450, 599.100 251, 598 251 C 596.900 251, 596 250.550, 596 250 C 596 249.450, 595.100 249, 594 249 C 592.900 249, 592 248.550, 592 248 C 592 247.450, 591.100 247, 590 247 C 588.900 247, 588 246.550, 588 246 C 588 245.450, 587.127 245, 586.059 245 C 584.991 245, 583.840 244.550, 583.500 244 C 583.160 243.450, 581.334 243, 579.441 243 C 577.548 243, 576 242.550, 576 242 C 576 241.450, 575.100 241, 574 241 C 571.627 241, 571.316 238.477, 573.582 237.607 C 574.452 237.273, 577.152 237, 579.582 237 C 582.012 237, 584 236.550, 584 236 C 584 235.450, 584.900 235, 586 235 C 587.100 235, 588 234.550, 588 234 C 588 233.450, 588.900 233, 590 233 C 591.100 233, 592 232.550, 592 232 C 592 231.450, 592.900 231, 594 231 C 595.333 231, 596 230.333, 596 229 C 596 227.667, 596.667 227, 598 227 C 599.538 227, 600 226.333, 600 224.117 C 600 222.074, 600.583 221.081, 602 220.710 C 603.532 220.310, 604 219.346, 604 216.594 C 604 214.617, 603.865 213, 603.701 213 C 603.536 213, 602.851 214.524, 602.177 216.386 M 353.180 222.578 C 349.255 225.938, 349 226.477, 349 231.424 C 349 238.719, 351.062 242.339, 356.739 245.007 C 360.394 246.725, 361.821 246.968, 363.202 246.106 C 364.176 245.498, 365.654 245, 366.486 245 C 367.319 245, 368 244.550, 368 244 C 368 243.450, 368.900 243, 370 243 C 371.570 243, 372 242.333, 372 239.896 C 372 236.793, 372 236.793, 368.465 239.896 C 365.690 242.333, 364.011 243, 360.654 243 C 355.396 243, 352.505 240.589, 350.983 234.937 C 348.105 224.249, 360.001 216.546, 369.250 223.109 C 371.653 224.814, 372 224.855, 372 223.436 C 372 222.543, 371.100 221.577, 370 221.290 C 368.900 221.002, 368 220.369, 368 219.883 C 368 219.398, 365.606 219, 362.680 219 C 358.023 219, 356.839 219.446, 353.180 222.578 M 639.589 220.830 C 637.987 221.784, 636.370 223.225, 635.994 224.032 C 635.618 224.840, 634.791 226.506, 634.155 227.736 C 632.673 230.606, 632.713 233.591, 634.296 238.134 C 636.459 244.340, 637.499 245, 645.122 245 C 651.333 245, 652 244.806, 652 243 C 652 241.667, 652.667 241, 654 241 C 655.603 241, 655.987 240.354, 655.937 237.750 C 655.879 234.806, 655.788 234.712, 654.971 236.744 C 652.953 241.764, 642.861 244.812, 638.592 241.691 C 636.321 240.030, 634.953 232.754, 636.119 228.533 C 637.533 223.410, 640.381 221.500, 646.605 221.500 C 653.083 221.500, 653.358 219.592, 646.922 219.298 C 644.191 219.173, 641.387 219.759, 639.589 220.830 M 232.551 227.089 C 225.997 232.844, 215.508 249.845, 209.779 264 C 209.222 265.375, 208.369 267.281, 207.883 268.236 C 207.397 269.191, 207 270.852, 207 271.927 C 207 273.002, 206.550 274.160, 206 274.500 C 205.450 274.840, 205 275.998, 205 277.073 C 205 278.148, 204.550 279.921, 204 281.014 C 203.450 282.106, 202.550 283.894, 202 284.986 C 201.450 286.079, 201 287.852, 201 288.927 C 201 290.002, 200.550 291.160, 200 291.500 C 199.450 291.840, 199 293.415, 199 295 C 199 296.585, 198.598 298.131, 198.106 298.435 C 197.614 298.739, 196.956 300.678, 196.644 302.744 C 196.332 304.810, 195.807 308.300, 195.476 310.500 C 195.146 312.700, 194.470 315.400, 193.974 316.500 C 193.478 317.600, 192.852 321.650, 192.581 325.500 C 192.311 329.350, 191.647 337.900, 191.106 344.500 C 189.985 358.155, 190.834 370.693, 194.576 395.756 C 194.925 398.097, 195.614 400.261, 196.106 400.565 C 196.598 400.869, 197 402.415, 197 404 C 197 405.585, 197.450 407.160, 198 407.500 C 198.550 407.840, 199 408.998, 199 410.073 C 199 411.148, 199.397 412.809, 199.883 413.764 C 200.369 414.719, 201.212 416.625, 201.757 418 C 206.362 429.630, 215.813 447.882, 219.137 451.564 C 220.162 452.700, 221 453.969, 221 454.384 C 221 455.979, 227.605 464.631, 233.205 470.372 C 238.482 475.782, 238.905 476.523, 237.512 477.916 C 236.250 479.178, 235.607 479.236, 233.997 478.230 C 232.914 477.554, 230.248 477, 228.073 477 C 225.898 477, 223.840 476.550, 223.500 476 C 223.160 475.450, 220.434 475, 217.441 475 C 214.448 475, 212 474.550, 212 474 C 212 473.450, 210.902 473, 209.559 473 C 208.216 473, 206.840 472.550, 206.500 472 C 206.160 471.450, 204.585 471, 203 471 C 201.415 471, 199.840 470.550, 199.500 470 C 199.160 469.450, 197.334 469, 195.441 469 C 193.548 469, 192 468.660, 192 468.243 C 192 467.329, 184.832 465, 182.016 465 C 180.907 465, 180 464.550, 180 464 C 180 463.450, 179.100 463, 178 463 C 176.900 463, 176 462.550, 176 462 C 176 461.450, 175.100 461, 174 461 C 172.900 461, 172 460.550, 172 460 C 172 459.450, 171.100 459, 170 459 C 168.900 459, 168 458.550, 168 458 C 168 457.450, 167.100 457, 166 457 C 164.900 457, 164 456.550, 164 456 C 164 455.450, 163.100 455, 162 455 C 160.900 455, 160 454.550, 160 454 C 160 453.450, 159.137 453, 158.083 453 C 157.029 453, 155.994 452.483, 155.783 451.850 C 155.572 451.217, 154.759 450.914, 153.975 451.175 C 152.269 451.744, 165.987 459.366, 178 464.525 C 188.741 469.138, 213.392 476.224, 226.708 478.526 C 235.712 480.083, 237.266 480.121, 239.890 478.850 C 242.865 477.409, 242.865 477.409, 236.032 470.314 C 219.929 453.594, 203.828 423.526, 197.379 398.133 C 192.856 380.326, 191.220 353.657, 193.383 333 C 195.928 308.693, 204.194 279.978, 215.835 255 C 219.417 247.314, 230.530 230.515, 233.662 228.051 C 239.665 223.329, 245.723 226.507, 246.957 235.026 C 247.750 240.500, 247.750 240.500, 247.875 235.332 C 248.019 229.381, 247.333 227, 245.476 227 C 244.756 227, 244.017 226.588, 243.833 226.084 C 243.650 225.580, 241.872 224.866, 239.883 224.497 C 236.736 223.914, 235.784 224.251, 232.551 227.089 M 373 231 C 373 234.958, 374.525 236.401, 375.639 233.498 C 376.394 231.531, 375.237 227, 373.981 227 C 373.441 227, 373 228.800, 373 231 M 249.974 251.750 C 250.452 253.262, 251.068 255.175, 251.343 256 C 251.617 256.825, 251.878 255.588, 251.921 253.250 C 251.978 250.170, 251.601 249, 250.552 249 C 249.428 249, 249.299 249.616, 249.974 251.750 M 609.471 259.953 C 609.795 260.478, 611.397 261.858, 613.030 263.022 C 616 265.136, 616 265.136, 616 263.068 C 616 261.667, 615.355 261, 614 261 C 612.900 261, 612 260.550, 612 260 C 612 259.450, 611.298 259, 610.441 259 C 609.584 259, 609.147 259.429, 609.471 259.953 M 254.344 266.750 C 255.313 269.892, 255.553 270.124, 255.829 268.177 C 256.221 265.410, 255.428 263, 254.125 263 C 253.580 263, 253.672 264.571, 254.344 266.750 M 623.060 270.750 C 632.892 279.906, 636.164 281.200, 652 282.193 C 659.425 282.658, 672.025 283.479, 680 284.017 C 720.365 286.741, 754.160 288.770, 771.500 289.511 C 784.837 290.081, 794.944 291.274, 798.724 292.724 C 799.426 292.994, 800 292.716, 800 292.107 C 800 291.498, 799.190 291, 798.200 291 C 797.210 291, 795.953 290.553, 795.407 290.007 C 794.861 289.461, 789.483 288.766, 783.457 288.463 C 777.431 288.160, 763.275 287.458, 752 286.904 C 716.162 285.141, 679.979 282.767, 671 281.589 C 668.525 281.264, 662 280.807, 656.500 280.574 C 644.019 280.045, 636 278.983, 636 277.861 C 636 277.387, 635.100 277, 634 277 C 632.900 277, 632 276.550, 632 276 C 632 275.450, 631.100 275, 630 275 C 628.667 275, 628 274.333, 628 273 C 628 271.708, 627.333 271, 626.117 271 C 625.074 271, 624 270.107, 623.710 269 C 623.423 267.900, 622.470 267, 621.594 267 C 620.717 267, 620 266.550, 620 266 C 620 265.450, 619.299 265, 618.443 265 C 617.569 265, 619.594 267.522, 623.060 270.750 M 224.603 274.250 C 219.185 288.133, 216.852 299.421, 216.275 314.550 C 215.441 336.368, 219.231 350.906, 230.087 367.536 C 243.913 388.715, 266.013 402.586, 295.395 408.526 C 299.006 409.256, 298.020 410.196, 290.908 412.803 C 272.742 419.464, 249.922 419.522, 232.629 412.951 C 229.873 411.904, 227.440 411.226, 227.221 411.445 C 227.003 411.664, 228.071 414.016, 229.595 416.671 C 233.455 423.396, 247.259 436.757, 255.017 441.276 C 269.501 449.714, 289.669 452.931, 309.136 449.911 C 312.997 449.312, 316.381 449.047, 316.656 449.323 C 317.548 450.215, 304.672 462.531, 298.500 466.688 C 290.268 472.234, 276.883 478.884, 268.628 481.529 C 264.848 482.740, 262.148 483.966, 262.628 484.254 C 263.108 484.541, 267.029 485.557, 271.343 486.510 C 277.647 487.902, 282.062 488.132, 293.843 487.681 C 301.904 487.372, 309.850 486.813, 311.500 486.439 C 314.186 485.830, 314.343 485.920, 313 487.294 C 310.137 490.223, 298.460 495.890, 291.123 497.911 C 270.462 503.602, 237.250 502.795, 207.695 495.883 C 197.609 493.525, 179.426 487.490, 170.467 483.528 C 167.323 482.138, 164.581 481, 164.372 481 C 164.164 481, 165.682 483.767, 167.747 487.149 C 172.945 495.666, 192.741 515.575, 202.410 522.012 C 223.588 536.109, 244.431 541.988, 273.257 541.996 C 286.205 542, 306.632 539.964, 309.128 538.421 C 309.608 538.124, 310 538.321, 310 538.857 C 310 540.725, 298.093 550.590, 290.806 554.760 C 275.279 563.643, 259.490 567.364, 239.518 566.847 C 226.103 566.500, 226.103 566.500, 228.751 569.263 C 232.555 573.232, 244.353 581.173, 252.500 585.248 C 280.903 599.454, 316.054 601.927, 346.468 591.860 C 351.400 590.228, 358.713 587.175, 362.718 585.076 C 366.725 582.977, 370 581.783, 370 582.422 C 370 583.061, 367.674 587.364, 364.830 591.985 C 357.190 604.400, 343.544 617.462, 329.595 625.715 C 325.500 628.137, 325.500 628.137, 338.500 627.704 C 353.009 627.220, 362.099 624.774, 370.531 619.084 C 372.989 617.425, 375 616.409, 375 616.827 C 375 619.426, 315.181 685.662, 294.378 706.097 C 272.601 727.490, 263.875 735.159, 246.761 747.949 C 241.405 751.952, 237.251 755.596, 237.530 756.048 C 238.564 757.721, 253.745 762.872, 259.590 763.533 C 275.545 765.338, 296.086 755.501, 315.750 736.638 C 320.288 732.286, 324 729.084, 324 729.524 C 324 730.963, 309.464 758.279, 302.987 769.012 C 296.170 780.307, 284.858 797.164, 281.759 800.645 C 279.849 802.789, 279.849 802.789, 284.675 804.349 C 291.984 806.711, 305.503 809, 312.150 809 C 319.751 809, 323.916 806.877, 331.067 799.355 C 338.478 791.562, 343.546 782.759, 351.997 763.006 C 355.865 753.967, 359.408 746.192, 359.872 745.728 C 360.336 745.264, 361.020 748.623, 361.391 753.192 C 362.355 765.040, 364.351 773.622, 367.992 781.577 C 371.161 788.500, 371.161 788.500, 377.174 782.012 C 383.720 774.948, 390.963 761.357, 392.901 752.500 C 393.503 749.750, 394.430 739.170, 394.961 728.989 C 396.925 691.335, 404.267 659.704, 417.356 632.500 C 426.748 612.981, 436.710 599.620, 464.850 568.799 C 499.769 530.553, 511.927 506.768, 516.628 467.500 C 517.803 457.681, 518.022 449.973, 517.524 436 C 516.254 400.375, 520.427 383.620, 533.985 369.912 C 541.767 362.044, 552.411 356.418, 567.353 352.274 C 577.205 349.542, 577.205 349.542, 567.853 344.977 C 562.709 342.466, 556.608 339.656, 554.296 338.732 C 550.670 337.284, 549.933 336.467, 548.944 332.793 C 543.334 311.958, 521.988 299.756, 499.255 304.391 C 481.671 307.976, 470.805 316.650, 457.402 337.800 C 447.025 354.176, 443.741 358.312, 436.579 364.027 C 431.147 368.361, 431.147 368.361, 437.516 375.240 C 452.114 391.008, 458.702 405.976, 454.805 414.528 C 452.538 419.504, 444.716 421.590, 440.196 418.425 C 438.959 417.558, 436.104 413.185, 433.852 408.706 C 428.794 398.646, 424.351 392.732, 417.815 387.357 C 407.834 379.151, 399.823 376.381, 376.247 372.982 C 342.028 368.048, 317.949 360.119, 294.411 346.035 C 264.719 328.268, 240.046 299.464, 229.921 270.750 C 229.193 268.688, 228.336 267, 228.015 267 C 227.694 267, 226.159 270.262, 224.603 274.250 M 806.276 295.422 C 809.452 296.729, 812.725 298.357, 813.550 299.041 C 814.374 299.725, 815.308 300.026, 815.624 299.709 C 816.515 298.818, 815.050 297, 813.441 297 C 812.648 297, 812 296.550, 812 296 C 812 295.450, 811.100 295, 810 295 C 808.900 295, 808 294.550, 808 294 C 808 293.450, 806.313 293.011, 804.250 293.024 C 800.500 293.047, 800.500 293.047, 806.276 295.422 M 570.500 296.603 C 565.280 297.971, 556 301.219, 556 301.678 C 556 301.961, 557.816 304.256, 560.035 306.777 C 562.255 309.299, 565.421 314.191, 567.071 317.649 C 569.950 323.681, 570.611 324.304, 583.304 332.940 C 595.968 341.556, 608 351.296, 608 352.932 C 608 353.583, 599.745 357.646, 592.500 360.560 C 590.142 361.509, 593.421 361.803, 647 365.442 C 736.396 371.514, 788.806 375.472, 789.541 376.207 C 789.790 376.456, 789.341 378.874, 788.545 381.580 C 787.748 384.286, 785.779 391.450, 784.168 397.500 C 782.558 403.550, 779.184 416.150, 776.672 425.500 C 774.159 434.850, 771.449 444.975, 770.649 448 C 769.849 451.025, 766.623 462.950, 763.481 474.500 C 760.339 486.050, 756.743 499.325, 755.489 504 C 754.236 508.675, 747.112 534.775, 739.659 562 C 732.206 589.225, 722.504 624.775, 718.100 641 C 713.696 657.225, 706.640 682.875, 702.421 698 C 691.529 737.043, 692.187 733.523, 695.175 736.766 C 696.560 738.270, 699.261 741.602, 701.177 744.171 C 704.660 748.842, 704.660 748.842, 710.987 726.671 C 717.200 704.900, 731.287 654.680, 736.983 634 C 738.573 628.225, 742.178 615.175, 744.993 605 C 747.809 594.825, 753.901 572.775, 758.531 556 C 763.161 539.225, 768.944 518.300, 771.381 509.500 C 773.818 500.700, 778.976 481.800, 782.844 467.500 C 786.711 453.200, 792.553 431.825, 795.827 420 C 813.363 356.662, 814.427 352.182, 814.464 341.500 C 814.493 333.503, 814.104 330.699, 812.523 327.500 C 809.699 321.789, 802.905 315.571, 795.513 311.932 C 787.702 308.086, 789.916 308.296, 700.500 302.932 C 663.650 300.721, 628.550 298.475, 622.500 297.941 C 609.411 296.786, 573.344 295.858, 570.500 296.603 M 826 307.313 C 826 307.485, 827.350 308.919, 829 310.500 C 831.467 312.864, 832 313.058, 832 311.593 C 832 310.614, 831.100 309.577, 830 309.290 C 828.900 309.002, 828 308.369, 828 307.883 C 828 307.398, 827.550 307, 827 307 C 826.450 307, 826 307.141, 826 307.313 M 290.467 315.947 C 290.789 316.468, 293.066 318.252, 295.526 319.913 C 298.955 322.227, 300 322.568, 300 321.373 C 300 320.515, 299.100 319.577, 298 319.290 C 296.900 319.002, 296 318.369, 296 317.883 C 296 317.398, 295.100 317, 294 317 C 292.900 317, 292 316.550, 292 316 C 292 315.450, 291.523 315, 290.941 315 C 290.359 315, 290.145 315.426, 290.467 315.947 M 507.763 322.565 C 502.024 325.679, 500.413 333.346, 504.287 339.102 C 508.800 345.806, 516.076 346.585, 522.294 341.028 C 525.187 338.443, 525.500 337.612, 525.500 332.500 C 525.500 327.367, 525.194 326.563, 522.234 323.918 C 518.490 320.573, 512.472 320.010, 507.763 322.565 M 302.944 324.923 C 307.078 328.100, 316 332.948, 316 332.016 C 316 330.928, 310.594 327, 309.096 327 C 308.493 327, 308 326.550, 308 326 C 308 325.450, 307.100 325, 306 325 C 304.900 325, 304 324.550, 304 324 C 304 323.450, 303.212 323.010, 302.250 323.022 C 300.823 323.040, 300.951 323.391, 302.944 324.923 M 626.756 324.977 C 622.408 328.397, 622.585 336.011, 627.076 338.816 C 628.372 339.625, 639.407 340.802, 657.308 342.042 C 693.733 344.564, 697.437 344.563, 699.975 342.025 C 704.109 337.891, 703.560 331.665, 698.796 328.656 C 697.130 327.605, 687.713 326.625, 664.500 325.088 C 646.900 323.923, 631.773 322.977, 630.885 322.985 C 629.997 322.993, 628.138 323.890, 626.756 324.977 M 729.284 329.683 C 725.649 330.416, 722 335.603, 722 340.036 C 722 350.076, 736.167 352.537, 740.883 343.316 C 744.516 336.211, 737.544 328.017, 729.284 329.683 M 831.830 339.017 C 832.399 344.980, 830.659 353.300, 823.503 378.837 C 819.926 391.601, 817 402.433, 817 402.909 C 817 403.384, 818.237 403.985, 819.750 404.245 C 821.263 404.505, 823.207 405.023, 824.070 405.397 C 825.367 405.958, 826.569 402.980, 830.975 388.288 C 835.938 371.738, 836.310 369.769, 836.329 360 C 836.341 353.213, 835.742 347.205, 834.633 343.009 C 832.602 335.322, 831.301 333.469, 831.830 339.017 M 850.716 382.250 C 850.416 384.038, 849.859 386.288, 849.478 387.250 C 848.993 388.478, 849.266 389, 850.393 389 C 851.655 389, 852 387.926, 852 384 C 852 378.247, 851.502 377.568, 850.716 382.250 M 747.982 398.250 C 742.473 403.887, 738.086 409.127, 738.233 409.893 C 738.380 410.659, 739.254 411.761, 740.176 412.341 C 741.564 413.215, 743.492 411.776, 751.415 403.948 C 759.583 395.879, 760.980 394.026, 760.989 391.250 C 760.997 389.023, 760.528 388, 759.500 388 C 758.674 388, 753.492 392.613, 747.982 398.250 M 846.154 400.594 C 844.856 406.178, 845.280 408.753, 847.039 405.971 C 847.850 404.689, 848.458 395, 847.727 395 C 847.577 395, 846.870 397.517, 846.154 400.594 M 842.205 415.372 C 840.883 420.346, 841.209 422.191, 843.081 420.319 C 843.657 419.743, 843.987 417.298, 843.814 414.886 C 843.500 410.500, 843.500 410.500, 842.205 415.372 M 810.609 429.965 C 807.731 439.930, 807.731 439.930, 810.818 443.446 C 812.516 445.380, 814.177 446.522, 814.509 445.985 C 815.570 444.268, 819.957 428.579, 819.979 426.424 C 820 424.362, 816.231 420, 814.429 420 C 813.911 420, 812.192 424.484, 810.609 429.965 M 838.175 429.635 C 836.911 434.361, 837.362 436.623, 839.039 433.971 C 839.869 432.659, 840.439 425, 839.707 425 C 839.546 425, 838.857 427.086, 838.175 429.635 M 626.169 432.741 C 625.668 433.708, 621.519 447.708, 616.949 463.851 C 612.320 480.202, 608.066 493.421, 607.345 493.698 C 606.632 493.971, 592.707 492.783, 576.399 491.056 C 560.092 489.330, 546.648 488.049, 546.524 488.209 C 546.401 488.369, 545.841 490.300, 545.281 492.500 C 543.885 497.980, 533.321 534.120, 532.539 536.090 C 531.990 537.476, 534.715 537.972, 553.704 539.941 C 580.390 542.709, 594.830 544.497, 595.443 545.109 C 595.697 545.364, 586.937 576.976, 575.976 615.357 C 556.047 685.143, 556.047 685.143, 561.047 690.143 C 563.797 692.893, 566.733 696.190, 567.572 697.469 C 569.096 699.796, 569.096 699.796, 574.738 696.399 C 582.774 691.560, 589.920 689.119, 601.442 687.276 C 606.974 686.391, 611.577 685.627, 611.672 685.578 C 611.838 685.492, 618.822 660.360, 623.503 643 C 624.764 638.325, 628.968 623.025, 632.845 609 C 636.723 594.975, 641.918 576.138, 644.390 567.141 C 646.862 558.144, 649.072 550.594, 649.301 550.365 C 649.531 550.136, 653.931 550.426, 659.081 551.009 C 672.227 552.498, 707.187 555.986, 709.044 555.994 C 710.152 555.998, 711.216 553.524, 712.806 547.250 C 714.025 542.438, 716.817 531.988, 719.011 524.029 C 721.205 516.069, 723 508.852, 723 507.991 C 723 506.937, 721.937 506.352, 719.750 506.201 C 717.962 506.077, 712 505.526, 706.500 504.976 C 659.416 500.266, 661.564 500.577, 662.330 498.582 C 662.800 497.358, 669.177 473.828, 676.036 448.011 C 677.569 442.242, 678.654 437.249, 678.448 436.915 C 678.241 436.582, 673.444 436.020, 667.786 435.667 C 657.085 435, 633.132 432.409, 629.290 431.503 C 627.816 431.155, 626.777 431.567, 626.169 432.741 M 834.233 444.900 C 832.940 450.412, 833.216 452.184, 835.077 450.323 C 835.651 449.749, 835.981 447.079, 835.810 444.390 C 835.500 439.500, 835.500 439.500, 834.233 444.900 M 132.077 448.077 C 129.239 450.915, 129 451.686, 129 458.018 C 129 461.793, 129.450 465.160, 130 465.500 C 130.550 465.840, 131 467.415, 131 469 C 131 470.585, 131.450 472.160, 132 472.500 C 132.550 472.840, 133 473.998, 133 475.073 C 133 476.148, 133.397 477.809, 133.883 478.764 C 134.756 480.480, 136.183 483.877, 137.866 488.250 C 139.311 492.002, 141.183 496.401, 142.117 498.236 C 142.603 499.191, 143 500.591, 143 501.346 C 143 502.563, 144.349 505.552, 150.969 519 C 153.415 523.969, 156.919 530.056, 159.117 533.154 C 160.153 534.614, 161 536.232, 161 536.749 C 161 537.267, 161.900 538.505, 163 539.500 C 164.100 540.495, 165 541.670, 165 542.111 C 165 544.633, 179.263 562.775, 192.430 577 C 206.311 591.996, 232.768 614.441, 239.649 617.056 C 240.835 617.508, 242.073 618.309, 242.399 618.837 C 242.726 619.365, 248.282 622.358, 254.746 625.488 C 261.211 628.618, 267.281 631.589, 268.236 632.089 C 269.191 632.590, 270.660 633, 271.500 633 C 272.340 633, 273.921 633.450, 275.014 634 C 276.106 634.550, 277.894 635.450, 278.986 636 C 280.079 636.550, 281.852 637, 282.927 637 C 284.002 637, 285.160 637.450, 285.500 638 C 285.840 638.550, 287.190 639, 288.500 639 C 289.810 639, 291.160 639.450, 291.500 640 C 291.840 640.550, 293.072 641, 294.238 641 C 296.490 641, 302.347 642.663, 305.236 644.123 C 306.191 644.605, 309.229 645, 311.986 645 C 316.526 645, 316.998 645.213, 316.978 647.250 C 316.966 648.487, 316.047 650.625, 314.937 652 C 313.826 653.375, 311.058 657.200, 308.784 660.500 C 301.708 670.771, 270.141 702.556, 255.903 713.747 C 252.931 716.083, 244.548 722.720, 237.272 728.497 C 229.997 734.274, 223.654 739, 223.177 739 C 222.700 739, 221.495 739.900, 220.500 741 C 219.505 742.100, 218.145 743, 217.479 743 C 216.813 743, 213.733 745.436, 210.634 748.414 C 205.661 753.192, 205 754.289, 205 757.760 C 205 765.321, 208.618 769.472, 220.500 775.544 C 223.800 777.230, 227.400 779.098, 228.500 779.695 C 230.776 780.931, 239.263 784.763, 243 786.243 C 244.375 786.788, 246.281 787.631, 247.236 788.117 C 248.191 788.603, 250.034 789, 251.331 789 C 255.329 789, 258.500 794.027, 256.094 796.550 C 252.920 799.880, 251 805.454, 251 811.343 C 251 816.939, 251.300 817.892, 253.750 820.063 C 257.371 823.271, 260.546 825, 262.820 825 C 263.836 825, 264.975 825.308, 265.352 825.685 C 266.449 826.783, 273.299 828.969, 275.691 828.985 C 276.896 828.993, 278.160 829.450, 278.500 830 C 278.840 830.550, 280.801 831, 282.859 831 C 284.917 831, 287.028 831.406, 287.550 831.903 C 289.097 833.374, 297.395 834.160, 316.405 834.639 C 328.114 834.934, 334.672 834.728, 335.355 834.045 C 335.930 833.470, 338.110 833, 340.200 833 C 342.290 833, 344 832.550, 344 832 C 344 831.450, 344.900 831, 346 831 C 347.100 831, 348 830.550, 348 830 C 348 829.450, 348.900 829, 350 829 C 351.100 829, 352 828.550, 352 828 C 352 826.275, 358.193 826.886, 359.608 828.750 C 360.339 829.712, 360.951 832.161, 360.968 834.191 C 360.986 836.221, 361.450 838.160, 362 838.500 C 362.550 838.840, 363 839.998, 363 841.073 C 363 842.148, 363.412 843.809, 363.916 844.764 C 364.420 845.719, 365.529 848.075, 366.382 850 C 370.142 858.490, 385.530 877.163, 393 882.302 C 395.475 884.004, 401.005 888.908, 405.289 893.198 C 409.573 897.489, 413.934 901, 414.980 901 C 416.026 901, 417.160 901.450, 417.500 902 C 417.840 902.550, 418.931 903, 419.926 903 C 420.920 903, 424.156 903.948, 427.117 905.107 C 438.882 909.713, 442.955 911, 445.762 911 C 446.928 911, 448.160 911.450, 448.500 912 C 448.840 912.550, 450.190 913, 451.500 913 C 452.810 913, 454.160 913.450, 454.500 914 C 454.840 914.550, 456.190 915, 457.500 915 C 458.810 915, 460.160 915.450, 460.500 916 C 460.840 916.550, 462.190 917, 463.500 917 C 464.810 917, 466.160 917.450, 466.500 918 C 466.840 918.550, 468.223 919, 469.573 919 C 470.923 919, 472.809 919.404, 473.764 919.897 C 474.719 920.391, 478.875 921.822, 483 923.077 C 487.125 924.333, 490.928 925.729, 491.450 926.180 C 491.973 926.631, 493.633 927, 495.141 927 C 496.649 927, 498.160 927.450, 498.500 928 C 498.840 928.550, 500.104 929.007, 501.309 929.015 C 503.701 929.031, 510.551 931.217, 511.648 932.315 C 512.025 932.692, 513.357 933, 514.608 933 C 515.859 933, 517.160 933.450, 517.500 934 C 517.840 934.550, 519.072 935, 520.238 935 C 521.404 935, 523.740 935.420, 525.429 935.932 C 527.118 936.445, 530.525 937.396, 533 938.046 C 535.475 938.696, 538.400 939.593, 539.500 940.039 C 544.335 941.999, 556.363 944.016, 569.849 945.128 C 585.783 946.443, 618.051 944.344, 619.565 941.894 C 619.869 941.402, 621.223 941, 622.573 941 C 623.923 941, 625.921 940.550, 627.014 940 C 628.106 939.450, 629.894 938.550, 630.986 938 C 632.079 937.450, 633.654 937, 634.486 937 C 635.319 937, 636 936.550, 636 936 C 636 935.450, 636.900 935, 638 935 C 639.100 935, 640 934.550, 640 934 C 640 933.450, 640.900 933, 642 933 C 643.100 933, 644 932.550, 644 932 C 644 931.450, 644.900 931, 646 931 C 647.100 931, 648 930.550, 648 930 C 648 929.450, 648.900 929, 650 929 C 651.100 929, 652 928.550, 652 928 C 652 927.450, 652.900 927, 654 927 C 655.100 927, 656 926.550, 656 926 C 656 925.450, 656.900 925, 658 925 C 659.100 925, 660 924.550, 660 924 C 660 923.450, 660.900 923, 662 923 C 663.333 923, 664 922.333, 664 921 C 664 919.667, 664.667 919, 666 919 C 667.619 919, 668 918.333, 668 915.500 C 668 913.109, 668.459 912, 669.450 912 C 670.248 912, 671.260 911.416, 671.700 910.701 C 672.140 909.987, 675.087 908.154, 678.250 906.628 C 681.413 905.102, 684 903.211, 684 902.426 C 684 901.642, 684.900 901, 686 901 C 687.100 901, 688 900.550, 688 900 C 688 899.450, 688.900 899, 690 899 C 691.100 899, 692 898.602, 692 898.117 C 692 897.631, 692.900 896.998, 694 896.710 C 695.100 896.423, 696 895.470, 696 894.594 C 696 893.667, 696.837 893, 698 893 C 699.333 893, 700 892.333, 700 891 C 700 889.667, 700.667 889, 702 889 C 703.145 889, 704 888.333, 704 887.441 C 704 885.623, 703.775 885.742, 695.614 891.897 C 682.211 902.003, 666.784 907.256, 650.505 907.256 C 645.002 907.256, 623.400 905.846, 602.500 904.122 C 581.600 902.398, 546.500 899.619, 524.500 897.946 C 429.323 890.707, 421.445 890.006, 414.500 888.161 C 399.037 884.052, 391.886 879.592, 380.562 866.997 C 371.962 857.431, 366.100 846.714, 363.332 835.500 C 361.729 829.005, 358.870 824, 356.762 824 C 356.272 824, 353.538 825.065, 350.686 826.368 C 341.153 830.720, 329.281 833, 316.149 833 C 309.551 833, 301.756 832.519, 298.826 831.930 C 281.861 828.523, 277.522 827.450, 268 824.302 C 262.225 822.393, 256.494 819.898, 255.265 818.756 C 250.942 814.740, 251.312 806.714, 256.136 799.846 C 258.010 797.177, 258.604 791.497, 257.234 789.344 C 256.829 788.708, 252.673 786.930, 247.999 785.392 C 243.325 783.854, 233.215 779.425, 225.534 775.548 C 210.500 767.961, 206.966 764.723, 207.035 758.602 C 207.096 753.264, 209.703 750.229, 220 743.506 C 229.519 737.291, 259.085 713.812, 270.500 703.402 C 283.785 691.287, 302.426 672.232, 306.732 666.367 C 318.092 650.894, 320 647.991, 320 646.189 C 320 644.001, 318.198 643.010, 314.168 642.981 C 309.181 642.946, 284.211 635.625, 270 630.031 C 260.467 626.278, 244.855 618.007, 234.926 611.449 C 212.695 596.767, 184.678 568.392, 168.328 544 C 155.598 525.008, 150.980 516.044, 140.989 490.931 C 133.810 472.888, 130.829 463.016, 130.643 456.676 C 130.513 452.241, 130.823 451.515, 133.962 448.892 C 138.164 445.382, 141.203 445.262, 147.331 448.364 C 152.503 450.983, 153.880 449.577, 148.913 446.750 C 147.042 445.685, 143.746 445, 140.496 445 C 135.864 445, 134.745 445.409, 132.077 448.077 M 830.218 459.402 C 828.905 464.384, 829.221 466.179, 831.081 464.319 C 831.657 463.743, 831.987 461.306, 831.814 458.903 C 831.500 454.534, 831.500 454.534, 830.218 459.402 M 826.673 472.883 C 826.356 474.469, 825.801 476.944, 825.440 478.383 C 824.935 480.393, 825.156 481, 826.392 481 C 827.675 481, 828 479.887, 828 475.500 C 828 469.405, 827.548 468.512, 826.673 472.883 M 822.218 489.402 C 820.905 494.384, 821.221 496.179, 823.081 494.319 C 823.657 493.743, 823.987 491.306, 823.814 488.903 C 823.500 484.534, 823.500 484.534, 822.218 489.402 M 818.142 504.809 C 816.778 510.144, 817.137 512.263, 819.077 510.323 C 819.651 509.749, 819.981 507.079, 819.810 504.390 C 819.500 499.500, 819.500 499.500, 818.142 504.809 M 814.258 519.030 C 812.982 524.489, 813.241 526.159, 815.077 524.323 C 815.651 523.749, 815.981 521.126, 815.810 518.495 C 815.500 513.712, 815.500 513.712, 814.258 519.030 M 783 528.472 C 783 528.732, 779.220 542.120, 774.600 558.222 C 769.979 574.325, 763.855 596.050, 760.989 606.500 C 758.124 616.950, 753.159 634.725, 749.956 646 C 746.753 657.275, 742.055 674.150, 739.515 683.500 C 736.975 692.850, 730.833 714.900, 725.866 732.500 C 695.978 838.395, 695.915 838.577, 685.301 850.042 C 672.434 863.939, 656.692 870.952, 638.287 870.985 C 633.769 870.993, 616.444 869.890, 599.787 868.533 C 583.129 867.176, 554.425 864.919, 536 863.518 C 434.683 855.813, 395.002 851.973, 390.972 849.483 C 388.611 848.024, 390.331 850.907, 393.750 854.140 C 401.647 861.607, 411.070 866.184, 422.139 867.928 C 428.947 869.001, 469.358 872.375, 524.500 876.475 C 543.200 877.866, 573.125 880.184, 591 881.626 C 608.875 883.068, 630.925 884.305, 640 884.374 C 654.775 884.487, 657.232 884.258, 663.500 882.183 C 674.166 878.652, 683.575 872.626, 692.522 863.596 C 702.581 853.444, 706.422 845.916, 711.958 825.500 C 714.196 817.250, 717.765 804.200, 719.890 796.500 C 722.015 788.800, 725.587 775.750, 727.827 767.500 C 730.067 759.250, 736.247 736.525, 741.562 717 C 746.877 697.475, 752.482 676.775, 754.018 671 C 755.554 665.225, 760.946 645.650, 765.999 627.500 C 771.052 609.350, 775.841 592.025, 776.641 589 C 777.441 585.975, 779.377 579, 780.942 573.500 C 782.507 568, 785.467 557.164, 787.519 549.420 C 791.251 535.340, 791.251 535.340, 787.882 531.670 C 784.856 528.373, 783 527.157, 783 528.472 M 810.142 534.809 C 808.778 540.144, 809.137 542.263, 811.077 540.323 C 811.651 539.749, 811.981 537.079, 811.810 534.390 C 811.500 529.500, 811.500 529.500, 810.142 534.809 M 806.258 549.030 C 804.982 554.489, 805.241 556.159, 807.077 554.323 C 807.651 553.749, 807.981 551.126, 807.810 548.495 C 807.500 543.712, 807.500 543.712, 806.258 549.030 M 802.081 565.059 C 800.783 570.125, 801.292 572.734, 803.039 569.971 C 803.878 568.645, 804.441 560, 803.689 560 C 803.518 560, 802.795 562.277, 802.081 565.059 M 798.218 579.402 C 796.905 584.384, 797.221 586.179, 799.081 584.319 C 799.657 583.743, 799.987 581.306, 799.814 578.903 C 799.500 574.534, 799.500 574.534, 798.218 579.402 M 794.233 594.900 C 792.940 600.412, 793.216 602.184, 795.077 600.323 C 795.651 599.749, 795.981 597.079, 795.810 594.390 C 795.500 589.500, 795.500 589.500, 794.233 594.900 M 790.218 609.402 C 788.905 614.384, 789.221 616.179, 791.081 614.319 C 791.657 613.743, 791.987 611.306, 791.814 608.903 C 791.500 604.534, 791.500 604.534, 790.218 609.402 M 786.218 624.402 C 784.905 629.384, 785.221 631.179, 787.081 629.319 C 787.657 628.743, 787.987 626.306, 787.814 623.903 C 787.500 619.534, 787.500 619.534, 786.218 624.402 M 782.258 639.030 C 780.982 644.489, 781.241 646.159, 783.077 644.323 C 783.651 643.749, 783.981 641.126, 783.810 638.495 C 783.500 633.712, 783.500 633.712, 782.258 639.030 M 778.649 651.750 C 778.319 653.263, 777.760 655.513, 777.407 656.750 C 776.932 658.420, 777.184 659, 778.383 659 C 779.657 659, 780 657.938, 780 654 C 780 648.405, 779.545 647.648, 778.649 651.750 M 774.081 669.059 C 772.783 674.125, 773.292 676.734, 775.039 673.971 C 775.878 672.645, 776.441 664, 775.689 664 C 775.518 664, 774.795 666.277, 774.081 669.059 M 770.258 683.030 C 768.982 688.489, 769.241 690.159, 771.077 688.323 C 771.651 687.749, 771.981 685.126, 771.810 682.495 C 771.500 677.712, 771.500 677.712, 770.258 683.030 M 493.193 688.026 C 489.724 688.502, 484.351 689.628, 481.253 690.529 C 474.875 692.383, 462.957 698.141, 461.256 700.191 C 459.537 702.263, 453.665 719.279, 437.485 769.075 C 429.367 794.059, 422.505 815.085, 422.236 815.801 C 421.967 816.516, 425.356 815.281, 429.768 813.057 C 440.951 807.418, 452.897 804.640, 466 804.632 C 485.431 804.621, 500.701 810.760, 514.164 823.997 C 521.828 831.532, 521.828 831.532, 523.974 824.016 C 525.155 819.882, 528.552 808.850, 531.524 799.500 C 534.495 790.150, 541.429 768.100, 546.931 750.500 C 556.936 718.500, 556.936 718.500, 552.271 711.618 C 540.325 693.992, 517.152 684.738, 493.193 688.026 M 766.154 698.594 C 764.856 704.178, 765.280 706.753, 767.039 703.971 C 767.850 702.689, 768.458 693, 767.727 693 C 767.577 693, 766.870 695.517, 766.154 698.594 M 600 708.015 C 592.199 709.635, 581.702 713.928, 576 717.831 C 570.500 721.595, 570.500 721.595, 564.313 740.548 C 560.910 750.971, 555.876 766.700, 553.126 775.500 C 545.810 798.911, 536.818 827.302, 536.242 828.807 C 535.967 829.527, 537.409 828.984, 539.446 827.601 C 544.870 823.921, 553.295 820.986, 563.500 819.223 C 585.214 815.472, 609.660 822.783, 626.322 838.011 C 631.826 843.041, 631.826 843.041, 633.394 838.271 C 634.256 835.647, 636.268 829, 637.864 823.500 C 646.269 794.536, 661.244 744.213, 663.080 738.762 C 665.183 732.519, 665.183 732.519, 657.842 725.501 C 650.099 718.099, 640.497 712.391, 631 709.544 C 624.476 707.587, 606.363 706.694, 600 708.015 M 762.218 713.402 C 760.905 718.384, 761.221 720.179, 763.081 718.319 C 763.657 717.743, 763.987 715.306, 763.814 712.903 C 763.500 708.534, 763.500 708.534, 762.218 713.402 M 433.207 715.789 C 427.915 718.455, 427.915 718.455, 420.063 742.478 C 415.744 755.690, 408.074 778.425, 403.018 793 C 397.962 807.575, 393.374 820.850, 392.823 822.500 C 391.950 825.115, 392.250 826.171, 395.161 830.728 C 396.997 833.603, 398.727 835.966, 399.005 835.978 C 399.283 835.990, 400.002 834.538, 400.602 832.750 C 401.203 830.962, 407.140 813.300, 413.796 793.500 C 423.637 764.226, 435.675 727.497, 439.443 715.250 C 440.307 712.440, 439.758 712.488, 433.207 715.789 M 758.177 728.413 C 756.845 734.227, 757.151 736.249, 759.074 734.326 C 759.646 733.754, 759.976 730.890, 759.807 727.963 C 759.500 722.640, 759.500 722.640, 758.177 728.413 M 754.233 742.900 C 752.940 748.412, 753.216 750.184, 755.077 748.323 C 755.651 747.749, 755.981 745.079, 755.810 742.390 C 755.500 737.500, 755.500 737.500, 754.233 742.900 M 677.658 756.250 C 676.711 759.138, 669.633 782.425, 661.930 808 C 654.227 833.575, 647.700 855.244, 647.425 856.154 C 647.045 857.413, 648.446 857.002, 653.286 854.431 C 659.647 851.054, 659.647 851.054, 664.761 833.777 C 677.259 791.554, 686 761.252, 686 760.151 C 686 758.696, 681.003 751, 680.058 751 C 679.686 751, 678.606 753.362, 677.658 756.250 M 750.154 758.594 C 748.856 764.178, 749.280 766.753, 751.039 763.971 C 751.850 762.689, 752.458 753, 751.727 753 C 751.577 753, 750.870 755.517, 750.154 758.594 M 746.258 773.030 C 744.982 778.489, 745.241 780.159, 747.077 778.323 C 747.651 777.749, 747.981 775.126, 747.810 772.495 C 747.500 767.712, 747.500 767.712, 746.258 773.030 M 742.161 788.328 C 740.817 794.176, 741.135 796.265, 743.074 794.326 C 743.646 793.754, 743.976 790.859, 743.807 787.893 C 743.500 782.500, 743.500 782.500, 742.161 788.328 M 738.258 803.030 C 736.982 808.489, 737.241 810.159, 739.077 808.323 C 739.651 807.749, 739.981 805.126, 739.810 802.495 C 739.500 797.712, 739.500 797.712, 738.258 803.030 M 734.154 818.594 C 732.856 824.178, 733.280 826.753, 735.039 823.971 C 735.850 822.689, 736.458 813, 735.727 813 C 735.577 813, 734.870 815.517, 734.154 818.594 M 445.500 826.934 C 437.161 829.062, 435.180 829.816, 423.677 835.241 C 416.561 838.596, 415.240 839.545, 416.851 840.141 C 419.324 841.055, 430.723 839.856, 446.500 837.022 C 464.887 833.719, 477.200 835.258, 494 842.960 C 498.675 845.103, 504.738 847.119, 507.474 847.440 C 512.448 848.023, 512.448 848.023, 507.474 842.888 C 500.528 835.716, 492.012 830.407, 482.777 827.489 C 472.875 824.361, 456.533 824.118, 445.500 826.934 M 729.890 834.467 C 728.576 839.797, 728.527 841, 729.621 841 C 731.342 841, 732.216 837.469, 731.816 832.137 C 731.500 827.934, 731.500 827.934, 729.890 834.467 M 563.500 839.082 C 555.740 840.614, 546.980 843.752, 541.568 846.938 C 536.636 849.841, 536.636 849.841, 540.568 850.597 C 546.105 851.662, 557.023 851.552, 567.052 850.330 C 577.635 849.041, 585.791 850.037, 597.644 854.064 C 603.197 855.951, 609.484 857.276, 614.500 857.616 C 622.500 858.159, 622.500 858.159, 620 856.132 C 614.283 851.495, 601.593 844.621, 593.774 841.926 C 584.316 838.666, 571.638 837.475, 563.500 839.082 M 726.181 847.847 C 724.830 852.298, 725.212 854.188, 727.085 852.315 C 727.663 851.737, 727.993 849.517, 727.818 847.382 C 727.500 843.500, 727.500 843.500, 726.181 847.847 M 722.267 859.055 C 720.959 862.573, 721.338 864.062, 723.095 862.305 C 723.679 861.721, 724.009 860.006, 723.828 858.492 C 723.500 855.741, 723.500 855.741, 722.267 859.055 M 717.659 868 C 715.925 870.935, 715.931 871, 717.943 871 C 719.562 871, 720 870.361, 720 868 C 720 866.350, 719.872 865, 719.716 865 C 719.559 865, 718.634 866.350, 717.659 868 M 712.167 875.941 C 708.584 880.401, 708.386 881, 710.500 881 C 711.333 881, 712 880.111, 712 879 C 712 877.667, 712.667 877, 714 877 C 715.467 877, 716 876.333, 716 874.500 C 716 873.125, 715.850 872, 715.667 872 C 715.484 872, 713.909 873.774, 712.167 875.941" stroke="none" fill="#f4f8f8" fill-rule="evenodd"/></svg>